<svg width="0" height="0" class="hidden">
  <symbol viewBox="0 0 20 20" xmlns="http://www.w3.org/2000/svg" id="sphere">
    <path fill-rule="evenodd" clip-rule="evenodd" d="M10 17.5C5.82667 17.5 2.5 14.4117 2.5 10.4417C2.5 6.26667 5.58833 2.5 10 2.5C14.1517 2.5 17.645 6.135 17.495 10.2775C17.6142 14.2267 13.7767 17.5 10 17.5ZM7.79417 15.2942C7.02667 15.2892 5.57083 14.9192 5.57083 14.9192C6.63345 15.8871 7.9853 16.4782 9.41745 16.601C10.8496 16.7237 12.2823 16.3714 13.4942 15.5983C13.6982 15.4829 13.8648 15.3114 13.9742 15.1042C14.0837 14.897 14.1314 14.6627 14.1117 14.4292C14.0367 13.8117 13.4942 13.0875 12.8675 13.0875C12.3342 13.0875 11.8525 13.4625 11.4425 13.7808C11.345 13.8558 11.2525 13.9308 11.16 13.9925C10.11 14.7425 9.105 15.3025 7.79417 15.2942ZM15.0192 14.2792C15.8575 13.3083 16.6167 12.2058 16.6167 10.8825C16.6167 9.95583 16.6033 8.9675 16.33 8.07167C16.175 8.89667 15.2933 9.55833 14.4108 9.55833C13.3075 9.55833 12.5275 8.94167 12.0725 8.16917C11.1592 6.61583 9.85333 5.575 8.01417 5.58833C5.30083 5.61 3.38083 7.79417 3.38083 10.4408C3.38083 12.7925 5.55167 14.4467 7.79333 14.4117C9.11667 14.3892 10.135 13.6617 11.1725 12.9075C11.645 12.5583 12.2625 12.2058 12.8667 12.2058C13.8725 12.2058 14.8517 13.3525 15.0192 14.2792ZM12.7917 7.66167C13.0783 8.16 13.5283 8.67667 14.4108 8.67667C16.175 8.67667 15.2933 5.7775 14.1775 4.86833C12.9875 3.92327 11.5194 3.39641 10 3.36917C8.42083 3.3525 6.62917 4.1725 5.5925 5.06417C5.51306 5.13194 5.52194 5.14667 5.61917 5.10833C6.37333 4.8125 7.19417 4.68917 8.015 4.70667C10.15 4.755 11.7208 5.83583 12.7925 7.66667L12.7917 7.66167ZM6.47083 9.55833C6.58895 9.56196 6.7066 9.54183 6.81679 9.49914C6.92698 9.45644 7.02747 9.39205 7.11231 9.30979C7.19714 9.22752 7.26459 9.12905 7.31065 9.02022C7.35671 8.91139 7.38045 8.79442 7.38045 8.67625C7.38045 8.55808 7.35671 8.44111 7.31065 8.33228C7.26459 8.22345 7.19714 8.12498 7.11231 8.04271C7.02747 7.96045 6.92698 7.89606 6.81679 7.85336C6.7066 7.81066 6.58895 7.79054 6.47083 7.79417C6.24158 7.80121 6.02408 7.89724 5.86441 8.06189C5.70474 8.22654 5.61545 8.44689 5.61545 8.67625C5.61545 8.90561 5.70474 9.12596 5.86441 9.29061C6.02408 9.45526 6.24158 9.55129 6.47083 9.55833ZM6.47083 10.4417C6.93866 10.441 7.38713 10.2548 7.71785 9.92393C8.04858 9.59305 8.23456 9.14449 8.235 8.67667C8.58392 8.67667 8.925 8.78013 9.21512 8.97398C9.50523 9.16783 9.73135 9.44336 9.86488 9.76572C9.9984 10.0881 10.0333 10.4428 9.96527 10.785C9.8972 11.1272 9.72918 11.4416 9.48245 11.6883C9.23573 11.935 8.92139 12.103 8.57917 12.1711C8.23696 12.2392 7.88224 12.2042 7.55988 12.0707C7.23752 11.9372 6.962 11.7111 6.76815 11.421C6.5743 11.1308 6.47083 10.7906 6.47083 10.4417ZM6.47083 6.91083C6.78262 6.91079 7.08886 6.99326 7.35846 7.14987C7.62806 7.30648 7.85141 7.53164 8.00583 7.8025L8.235 7.79333C8.76843 7.79352 9.28937 7.95484 9.72955 8.25615C10.1697 8.55747 10.5086 8.98472 10.7018 9.48194C10.895 9.97915 10.9335 10.5231 10.8123 11.0426C10.691 11.5621 10.4157 12.0328 10.0223 12.3931C9.62898 12.7534 9.13596 12.9865 8.60787 13.0618C8.07978 13.1371 7.54126 13.0512 7.06286 12.8152C6.58447 12.5792 6.18851 12.2042 5.92688 11.7393C5.66526 11.2745 5.55016 10.7414 5.59667 10.21C5.25733 10.0178 4.99126 9.71854 4.84003 9.35906C4.68881 8.99958 4.66097 8.60013 4.76085 8.22314C4.86074 7.84616 5.08273 7.5129 5.39212 7.27546C5.7015 7.03803 6.08084 6.9098 6.47083 6.91083Z" />
  </symbol>

  <symbol viewBox="0 0 34 34" xmlns="http://www.w3.org/2000/svg" id="habbits">
    <path d="M15.572 17.2677L13.7063 24.2575C13.6826 24.3321 13.651 24.4039 13.6113 24.4729C13.5717 24.5418 13.5197 24.6008 13.4555 24.65C13.3913 24.6991 13.3237 24.735 13.2529 24.7576C13.1821 24.7803 13.0971 24.7916 12.9979 24.7916C12.7618 24.7916 12.5687 24.7052 12.4185 24.5324C12.2693 24.3605 12.2235 24.1565 12.2811 23.9204L15.0011 11.4098L10.8163 13.1098V15.5564C10.8163 15.7575 10.7483 15.9261 10.6123 16.0621C10.4763 16.1981 10.3081 16.2656 10.1079 16.2647C9.9077 16.2638 9.73911 16.1962 9.60217 16.0621C9.46711 15.9261 9.39958 15.7575 9.39958 15.5564V12.1677L15.6811 9.51145C16.0116 9.36979 16.3233 9.28101 16.6161 9.24512C16.9108 9.21017 17.196 9.22434 17.4718 9.28762C17.7475 9.3509 17.9969 9.46612 18.2198 9.63329C18.4417 9.80045 18.6381 10.0224 18.8091 10.2991L19.7894 11.8575C20.6054 13.2023 21.4191 14.2068 22.2303 14.8707C23.0416 15.5346 23.9615 15.9611 24.99 16.15C25.1921 16.1849 25.3546 16.2756 25.4773 16.422C25.6011 16.5693 25.6629 16.744 25.6629 16.9461C25.6629 17.1482 25.5897 17.3107 25.4433 17.4335C25.2969 17.5562 25.1222 17.6035 24.9192 17.5751C23.5431 17.3315 22.3781 16.8167 21.4243 16.031C20.4704 15.2452 19.5859 14.2148 18.7708 12.9398L17.595 16.8909L20.5417 20.2144V24.0833C20.5417 24.2854 20.4741 24.454 20.3391 24.589C20.204 24.7241 20.0354 24.7916 19.8333 24.7916C19.6312 24.7916 19.4626 24.7241 19.3276 24.589C19.1925 24.454 19.125 24.2854 19.125 24.0833V20.934L15.572 17.2677ZM19.0981 7.81854C18.4275 7.81854 17.8604 7.58667 17.3967 7.12295C16.9329 6.65923 16.7011 6.09209 16.7011 5.42154C16.7011 4.75098 16.9325 4.18384 17.3953 3.72012C17.858 3.2564 18.4256 3.02454 19.0981 3.02454C19.7705 3.02454 20.3372 3.2564 20.7981 3.72012C21.259 4.18384 21.4913 4.75098 21.4951 5.42154C21.4989 6.09209 21.267 6.65923 20.7995 7.12295C20.332 7.58667 19.7649 7.81854 19.0981 7.81854ZM17 29.75C15.2396 29.75 13.5839 29.4147 12.0332 28.7441C10.4824 28.0726 9.13325 27.1631 7.98575 26.0156C6.83731 24.8672 5.92781 23.5176 5.25725 21.9668C4.58575 20.416 4.25 18.7604 4.25 17C4.25 14.6313 4.83083 12.4794 5.9925 10.5442C7.15417 8.60904 8.68417 7.08565 10.5825 5.97404C10.7487 5.87676 10.9272 5.85834 11.118 5.91879C11.3088 5.97923 11.4443 6.09587 11.5246 6.2687C11.6039 6.43587 11.6223 6.61295 11.5798 6.79995C11.5373 6.98695 11.4325 7.1324 11.2653 7.23629C9.5795 8.23362 8.22517 9.58512 7.20233 11.2908C6.17856 13.0002 5.66667 14.9033 5.66667 17C5.66667 20.1638 6.76458 22.8437 8.96042 25.0395C11.1562 27.2354 13.8361 28.3333 17 28.3333C20.0421 28.3333 22.6426 27.3133 24.8016 25.2733C26.9606 23.2333 28.1322 20.7215 28.3163 17.738C28.3277 17.5416 28.4023 17.3787 28.5402 17.2493C28.6781 17.119 28.8452 17.0538 29.0417 17.0538C29.2438 17.0538 29.4124 17.1246 29.5474 17.2663C29.6825 17.408 29.7448 17.5798 29.7344 17.782C29.5248 21.1404 28.2011 23.9747 25.7635 26.2848C23.3259 28.5949 20.4047 29.75 17 29.75Z" />
  </symbol>

  <symbol viewBox="0 0 20 20"  xmlns="http://www.w3.org/2000/svg" id="analytics">
    <path d="M17.8125 5C17.5581 5.00007 17.3076 5.06225 17.0827 5.18114C16.8578 5.30004 16.6653 5.47205 16.522 5.68224C16.3787 5.89243 16.2888 6.13443 16.2603 6.38723C16.2318 6.64002 16.2654 6.89596 16.3583 7.13281L13.0704 10.4207C12.7038 10.2764 12.2963 10.2764 11.9297 10.4207L9.57934 8.07031C9.67241 7.83341 9.7062 7.57736 9.67777 7.32442C9.64933 7.07149 9.55954 6.82933 9.41619 6.61901C9.27285 6.40868 9.08029 6.23656 8.85527 6.11761C8.63025 5.99865 8.37958 5.93648 8.12505 5.93648C7.87052 5.93648 7.61984 5.99865 7.39482 6.11761C7.1698 6.23656 6.97725 6.40868 6.8339 6.61901C6.69056 6.82933 6.60076 7.07149 6.57233 7.32442C6.54389 7.57736 6.57768 7.83341 6.67075 8.07031L2.75786 11.9832C2.42369 11.8521 2.05457 11.8401 1.71258 11.9491C1.37058 12.0582 1.07656 12.2817 0.879956 12.582C0.683351 12.8823 0.596153 13.2412 0.633022 13.5983C0.669891 13.9553 0.828579 14.2888 1.0824 14.5426C1.33623 14.7965 1.66971 14.9552 2.02677 14.992C2.38384 15.0289 2.74271 14.9417 3.04304 14.7451C3.34338 14.5485 3.56686 14.2545 3.67591 13.9125C3.78496 13.5705 3.77293 13.2014 3.64184 12.8672L7.55473 8.9543C7.92126 9.09857 8.32884 9.09857 8.69536 8.9543L11.0458 11.3047C10.9527 11.5416 10.9189 11.7976 10.9473 12.0506C10.9758 12.3035 11.0656 12.5457 11.2089 12.756C11.3522 12.9663 11.5448 13.1384 11.7698 13.2574C11.9948 13.3763 12.2455 13.4385 12.5 13.4385C12.7546 13.4385 13.0052 13.3763 13.2303 13.2574C13.4553 13.1384 13.6479 12.9663 13.7912 12.756C13.9345 12.5457 14.0243 12.3035 14.0528 12.0506C14.0812 11.7976 14.0474 11.5416 13.9543 11.3047L17.2422 8.0168C17.4562 8.10085 17.6861 8.13666 17.9154 8.12168C18.1448 8.10669 18.3681 8.04128 18.5693 7.9301C18.7705 7.81893 18.9446 7.66473 19.0794 7.47851C19.2142 7.29228 19.3062 7.07861 19.3489 6.85274C19.3916 6.62687 19.3839 6.39436 19.3264 6.1718C19.269 5.94923 19.1631 5.74208 19.0163 5.56513C18.8696 5.38819 18.6857 5.24579 18.4776 5.14811C18.2695 5.05042 18.0424 4.99985 17.8125 5Z" />
  </symbol>


  <!-- <symbol viewBox="0 0 42 42" xmlns="http://www.w3.org/2000/svg" id="sidebar-btn">
    <path fill-rule="evenodd" clip-rule="evenodd" d="M35 7L38.5 10.5L28 21L38.5 31.5L35 35L21 21L35 7Z" />
  </symbol> -->

  <symbol viewBox="0 0 20 20" xmlns="http://www.w3.org/2000/svg" id="home">
    <path d="M13.3334 7.00825L9.58341 3.25825L3.67508 9.16659H5.00008V15.8333H7.50008V10.8333H11.6667V15.8333H14.1667V9.16659H15.4917L14.1667 7.84159V4.99992H13.3334V7.00825ZM1.66675 9.99992L9.58341 2.08325L12.5001 4.99992V4.16659H15.0001V7.49992L17.5001 9.99992H15.0001V16.6666H10.8334V11.6666H8.33341V16.6666H4.16675V9.99992H1.66675Z" />
  </symbol>

  <symbol viewBox="0 0 66 43" version="1.1" xmlns="http://www.w3.org/2000/svg" xmlns:xlink="http://www.w3.org/1999/xlink" id="sidebar-btn">
    <g id="arrow" stroke="none" stroke-width="1" fill="none" fill-rule="evenodd">
      <path class="one" d="M40.1543933,3.89485454 L43.9763149,0.139296592 C44.1708311,-0.0518420739 44.4826329,-0.0518571125 44.6771675,0.139262789 L65.6916134,20.7848311 C66.0855801,21.1718824 66.0911863,21.8050225 65.704135,22.1989893 C65.7000188,22.2031791 65.6958657,22.2073326 65.6916762,22.2114492 L44.677098,42.8607841 C44.4825957,43.0519059 44.1708242,43.0519358 43.9762853,42.8608513 L40.1545186,39.1069479 C39.9575152,38.9134427 39.9546793,38.5968729 40.1481845,38.3998695 C40.1502893,38.3977268 40.1524132,38.395603 40.1545562,38.3934985 L56.9937789,21.8567812 C57.1908028,21.6632968 57.193672,21.3467273 57.0001876,21.1497035 C56.9980647,21.1475418 56.9959223,21.1453995 56.9937605,21.1432767 L40.1545208,4.60825197 C39.9574869,4.41477773 39.9546013,4.09820839 40.1480756,3.90117456 C40.1501626,3.89904911 40.1522686,3.89694235 40.1543933,3.89485454 Z" fill="#FFFFFF"></path>
      <path class="two" d="M20.1543933,3.89485454 L23.9763149,0.139296592 C24.1708311,-0.0518420739 24.4826329,-0.0518571125 24.6771675,0.139262789 L45.6916134,20.7848311 C46.0855801,21.1718824 46.0911863,21.8050225 45.704135,22.1989893 C45.7000188,22.2031791 45.6958657,22.2073326 45.6916762,22.2114492 L24.677098,42.8607841 C24.4825957,43.0519059 24.1708242,43.0519358 23.9762853,42.8608513 L20.1545186,39.1069479 C19.9575152,38.9134427 19.9546793,38.5968729 20.1481845,38.3998695 C20.1502893,38.3977268 20.1524132,38.395603 20.1545562,38.3934985 L36.9937789,21.8567812 C37.1908028,21.6632968 37.193672,21.3467273 37.0001876,21.1497035 C36.9980647,21.1475418 36.9959223,21.1453995 36.9937605,21.1432767 L20.1545208,4.60825197 C19.9574869,4.41477773 19.9546013,4.09820839 20.1480756,3.90117456 C20.1501626,3.89904911 20.1522686,3.89694235 20.1543933,3.89485454 Z" fill="#FFFFFF"></path>
      <path class="three" d="M0.154393339,3.89485454 L3.97631488,0.139296592 C4.17083111,-0.0518420739 4.48263286,-0.0518571125 4.67716753,0.139262789 L25.6916134,20.7848311 C26.0855801,21.1718824 26.0911863,21.8050225 25.704135,22.1989893 C25.7000188,22.2031791 25.6958657,22.2073326 25.6916762,22.2114492 L4.67709797,42.8607841 C4.48259567,43.0519059 4.17082418,43.0519358 3.97628526,42.8608513 L0.154518591,39.1069479 C-0.0424848215,38.9134427 -0.0453206733,38.5968729 0.148184538,38.3998695 C0.150289256,38.3977268 0.152413239,38.395603 0.154556228,38.3934985 L16.9937789,21.8567812 C17.1908028,21.6632968 17.193672,21.3467273 17.0001876,21.1497035 C16.9980647,21.1475418 16.9959223,21.1453995 16.9937605,21.1432767 L0.15452076,4.60825197 C-0.0425130651,4.41477773 -0.0453986756,4.09820839 0.148075568,3.90117456 C0.150162624,3.89904911 0.152268631,3.89694235 0.154393339,3.89485454 Z" fill="#FFFFFF"></path>
    </g>
  </symbol>


</svg>