<svg width="0" height="0" class="hidden">
  <symbol viewBox="0 0 29 29" fill="none" xmlns="http://www.w3.org/2000/svg" id="home">
    <g clip-path="url(#clip0_11_16)">
    <path d="M22.6562 29C24.3387 29 25.9523 28.3316 27.142 27.142C28.3316 25.9523 29 24.3387 29 22.6562C29 20.9738 28.3316 19.3602 27.142 18.1705C25.9523 16.9809 24.3387 16.3125 22.6562 16.3125C20.9738 16.3125 19.3602 16.9809 18.1705 18.1705C16.9809 19.3602 16.3125 20.9738 16.3125 22.6562C16.3125 24.3387 16.9809 25.9523 18.1705 27.142C19.3602 28.3316 20.9738 29 22.6562 29ZM19.9375 21.75H25.375C25.6154 21.75 25.8459 21.8455 26.0158 22.0154C26.1858 22.1854 26.2812 22.4159 26.2812 22.6562C26.2812 22.8966 26.1858 23.1271 26.0158 23.2971C25.8459 23.467 25.6154 23.5625 25.375 23.5625H19.9375C19.6971 23.5625 19.4666 23.467 19.2967 23.2971C19.1267 23.1271 19.0312 22.8966 19.0312 22.6562C19.0312 22.4159 19.1267 22.1854 19.2967 22.0154C19.4666 21.8455 19.6971 21.75 19.9375 21.75Z" fill="#FEF6F6"/>
    <path d="M13.2185 2.71879C13.5584 2.37899 14.0193 2.18811 14.4999 2.18811C14.9805 2.18811 15.4415 2.37899 15.7814 2.71879L19.9374 6.87485V4.53129C19.9374 4.29093 20.0329 4.06043 20.2029 3.89047C20.3728 3.72052 20.6033 3.62504 20.8437 3.62504H22.6562C22.8965 3.62504 23.127 3.72052 23.297 3.89047C23.4669 4.06043 23.5624 4.29093 23.5624 4.53129V10.4998L27.8291 14.7647C27.9133 14.8489 27.9801 14.949 28.0257 15.059C28.0714 15.1691 28.0948 15.2871 28.0948 15.4063C28.0948 15.5254 28.0714 15.6434 28.0257 15.7535C27.9801 15.8636 27.9133 15.9637 27.8291 16.0479C27.7448 16.1322 27.6448 16.199 27.5347 16.2446C27.4246 16.2902 27.3066 16.3137 27.1874 16.3137C27.0683 16.3137 26.9503 16.2902 26.8402 16.2446C26.7301 16.199 26.6301 16.1322 26.5458 16.0479L14.4999 4.00022L5.43742 13.0627V24.4688C5.43742 24.7091 5.5329 24.9396 5.70286 25.1096C5.87281 25.2796 6.10332 25.375 6.34367 25.375H13.5937C13.834 25.375 14.0645 25.4705 14.2345 25.6405C14.4044 25.8104 14.4999 26.0409 14.4999 26.2813C14.4999 26.5216 14.4044 26.7521 14.2345 26.9221C14.0645 27.0921 13.834 27.1875 13.5937 27.1875H6.34367C5.62262 27.1875 4.93109 26.9011 4.42123 26.3912C3.91136 25.8814 3.62492 25.1898 3.62492 24.4688V14.8752L2.45405 16.0479C2.36979 16.1322 2.26976 16.199 2.15967 16.2446C2.04958 16.2902 1.93158 16.3137 1.81242 16.3137C1.69326 16.3137 1.57527 16.2902 1.46518 16.2446C1.35509 16.199 1.25506 16.1322 1.1708 16.0479C1.08654 15.9637 1.0197 15.8636 0.974101 15.7535C0.9285 15.6434 0.905029 15.5254 0.905029 15.4063C0.905029 15.2871 0.9285 15.1691 0.974101 15.059C1.0197 14.949 1.08654 14.8489 1.1708 14.7647L13.2185 2.71879Z" fill="#FEF6F6"/>
    </g>
    <defs>
    <clipPath id="clip0_11_16">
    <rect width="29" height="29" fill="white"/>
    </clipPath>
    </defs>
  </symbol>

  <symbol viewBox="0 0 31 31" fill="none" xmlns="http://www.w3.org/2000/svg" id="sphere">
    <path d="M15.4999 20.6667C22.6338 20.6667 28.4166 18.3533 28.4166 15.5C28.4166 12.6467 22.6338 10.3334 15.4999 10.3334C8.36604 10.3334 2.58325 12.6467 2.58325 15.5C2.58325 18.3533 8.36604 20.6667 15.4999 20.6667Z" stroke="#FFF8F8" stroke-linecap="round" stroke-linejoin="round"/>
    <path d="M20.6666 15.5C20.6666 22.6339 18.3532 28.4167 15.4999 28.4167C12.6466 28.4167 10.3333 22.6339 10.3333 15.5C10.3333 8.36617 12.6466 2.58337 15.4999 2.58337C18.3532 2.58337 20.6666 8.36617 20.6666 15.5Z" stroke="#FFF8F8" stroke-linecap="round" stroke-linejoin="round"/>
    <path d="M15.9167 28.8333C23.0503 28.8333 28.8333 23.0503 28.8333 15.9167C28.8333 8.78299 23.0503 3 15.9167 3C8.78299 3 3 8.78299 3 15.9167C3 23.0503 8.78299 28.8333 15.9167 28.8333Z" stroke="#FFF8F8" stroke-linejoin="round"/>
  </symbol>

  <symbol viewBox="0 0 34 34" fill="none" xmlns="http://www.w3.org/2000/svg" id="habbits">
    <path d="M15.572 17.2677L13.7063 24.2575C13.6826 24.3321 13.651 24.4039 13.6113 24.4729C13.5717 24.5418 13.5197 24.6008 13.4555 24.65C13.3913 24.6991 13.3237 24.735 13.2529 24.7576C13.1821 24.7803 13.0971 24.7916 12.9979 24.7916C12.7618 24.7916 12.5687 24.7052 12.4185 24.5324C12.2693 24.3605 12.2235 24.1565 12.2811 23.9204L15.0011 11.4098L10.8163 13.1098V15.5564C10.8163 15.7575 10.7483 15.9261 10.6123 16.0621C10.4763 16.1981 10.3081 16.2656 10.1079 16.2647C9.9077 16.2638 9.73911 16.1962 9.60217 16.0621C9.46711 15.9261 9.39958 15.7575 9.39958 15.5564V12.1677L15.6811 9.51145C16.0116 9.36979 16.3233 9.28101 16.6161 9.24512C16.9108 9.21017 17.196 9.22434 17.4718 9.28762C17.7475 9.3509 17.9969 9.46612 18.2198 9.63329C18.4417 9.80045 18.6381 10.0224 18.8091 10.2991L19.7894 11.8575C20.6054 13.2023 21.4191 14.2068 22.2303 14.8707C23.0416 15.5346 23.9615 15.9611 24.99 16.15C25.1921 16.1849 25.3546 16.2756 25.4773 16.422C25.6011 16.5693 25.6629 16.744 25.6629 16.9461C25.6629 17.1482 25.5897 17.3107 25.4433 17.4335C25.2969 17.5562 25.1222 17.6035 24.9192 17.5751C23.5431 17.3315 22.3781 16.8167 21.4243 16.031C20.4704 15.2452 19.5859 14.2148 18.7708 12.9398L17.595 16.8909L20.5417 20.2144V24.0833C20.5417 24.2854 20.4741 24.454 20.3391 24.589C20.204 24.7241 20.0354 24.7916 19.8333 24.7916C19.6312 24.7916 19.4626 24.7241 19.3276 24.589C19.1925 24.454 19.125 24.2854 19.125 24.0833V20.934L15.572 17.2677ZM19.0981 7.81854C18.4275 7.81854 17.8604 7.58667 17.3967 7.12295C16.9329 6.65923 16.7011 6.09209 16.7011 5.42154C16.7011 4.75098 16.9325 4.18384 17.3953 3.72012C17.858 3.2564 18.4256 3.02454 19.0981 3.02454C19.7705 3.02454 20.3372 3.2564 20.7981 3.72012C21.259 4.18384 21.4913 4.75098 21.4951 5.42154C21.4989 6.09209 21.267 6.65923 20.7995 7.12295C20.332 7.58667 19.7649 7.81854 19.0981 7.81854ZM17 29.75C15.2396 29.75 13.5839 29.4147 12.0332 28.7441C10.4824 28.0726 9.13325 27.1631 7.98575 26.0156C6.83731 24.8672 5.92781 23.5176 5.25725 21.9668C4.58575 20.416 4.25 18.7604 4.25 17C4.25 14.6313 4.83083 12.4794 5.9925 10.5442C7.15417 8.60904 8.68417 7.08565 10.5825 5.97404C10.7487 5.87676 10.9272 5.85834 11.118 5.91879C11.3088 5.97923 11.4443 6.09587 11.5246 6.2687C11.6039 6.43587 11.6223 6.61295 11.5798 6.79995C11.5373 6.98695 11.4325 7.1324 11.2653 7.23629C9.5795 8.23362 8.22517 9.58512 7.20233 11.2908C6.17856 13.0002 5.66667 14.9033 5.66667 17C5.66667 20.1638 6.76458 22.8437 8.96042 25.0395C11.1562 27.2354 13.8361 28.3333 17 28.3333C20.0421 28.3333 22.6426 27.3133 24.8016 25.2733C26.9606 23.2333 28.1322 20.7215 28.3163 17.738C28.3277 17.5416 28.4023 17.3787 28.5402 17.2493C28.6781 17.119 28.8452 17.0538 29.0417 17.0538C29.2438 17.0538 29.4124 17.1246 29.5474 17.2663C29.6825 17.408 29.7448 17.5798 29.7344 17.782C29.5248 21.1404 28.2011 23.9747 25.7635 26.2848C23.3259 28.5949 20.4047 29.75 17 29.75Z" fill="#FFF4F4"/>
  </symbol>

  <symbol viewBox="0 0 26 26" fill="none" xmlns="http://www.w3.org/2000/svg" id="analytics">
    <path d="M3.25 1.625H1.625V22.75C1.625 23.181 1.7962 23.5943 2.10095 23.899C2.4057 24.2038 2.81902 24.375 3.25 24.375H24.375V22.75H3.25V1.625Z" fill="#FFF9F9"/>
    <path d="M24.375 7.3125H18.6875V8.9375H21.6044L15.4375 15.1044L11.9519 11.6106C11.8763 11.5345 11.7865 11.474 11.6875 11.4328C11.5885 11.3915 11.4823 11.3703 11.375 11.3703C11.2677 11.3703 11.1615 11.3915 11.0625 11.4328C10.9635 11.474 10.8737 11.5345 10.7981 11.6106L4.875 17.5419L6.02062 18.6875L11.375 13.3331L14.8606 16.8269C14.9362 16.903 15.026 16.9635 15.125 17.0047C15.224 17.046 15.3302 17.0672 15.4375 17.0672C15.5448 17.0672 15.651 17.046 15.75 17.0047C15.849 16.9635 15.9388 16.903 16.0144 16.8269L22.75 10.0831V13H24.375V7.3125Z" fill="#FFF9F9"/>
  </symbol>

</svg>